<svg xmlns="http://www.w3.org/2000/svg" viewBox="0 0 151 32" width="302" height="64" role="img" aria-label="vardex" xmlns:c2pa="http://c2pa.org/manifest"><metadata><c2pa:manifest>AAAWgmp1bWIAAAAeanVtZGMycGEAEQAQgAAAqgA4m3EDYzJwYQAAABZcanVtYgAAAEdqdW1kYzJtYQARABCAAACqADibcQN1cm46YzJwYTplZGMwZTBhMC03NmJkLTRlODktOTNhMy1kZjEwMDRkNTEwMTgAAAADl2p1bWIAAAApanVtZGMyYXMAEQAQgAAAqgA4m3EDYzJwYS5hc3NlcnRpb25zAAAAALxqdW1iAAAARGp1bWRjYm9yABEAEIAAAKoAOJtxE2MycGEuaW5ncmVkaWVudC52MwAAAAAYYzJzaK7vY4KUlx0/Z/LAgI+2sVoAAABwY2JvcqNpZGM6Zm9ybWF0bWltYWdlL3N2Zyt4bWxqaW5zdGFuY2VJRHgseG1wOmlpZDpmOTIyYzQwYy0wMTlkLTQwODYtYmRhNC02ZTIyMDE5ZTdlYWRscmVsYXRpb25zaGlwaHBhcmVudE9mAAAB4mp1bWIAAABBanVtZGNib3IAEQAQgAAAqgA4m3ETYzJwYS5hY3Rpb25zLnYyAAAAABhjMnNo33AXY9wmYZppBe4SsXZTcQAAAZljYm9yomdhY3Rpb25zgqJmYWN0aW9ua2MycGEub3BlbmVkanBhcmFtZXRlcnOha2luZ3JlZGllbnRzgaJjdXJseC1zZWxmI2p1bWJmPWMycGEuYXNzZXJ0aW9ucy9jMnBhLmluZ3JlZGllbnQudjNkaGFzaFggBH/Mp39pDxFvp7yKGgUD3RRmaXVQes5uCnYupdwKPXakZmFjdGlvbngdY29tLmFudGhyb3BpYy5jbGF1ZGUucHJvdmlkZWRqcGFyYW1ldGVyc6F4H2NvbS5hbnRocm9waWMub3JpZ2luLWNvbmZpZGVuY2VndW5rbm93bmtkZXNjcmlwdGlvbnhmQ2xhdWRlIHByb3ZpZGVkIHRoaXMgZmlsZSBhdCB0aGUgcmVxdWVzdCBvZiBhIHVzZXIgYW5kIG1heSBoYXZlIGNyZWF0ZWQgb3IgbW9kaWZpZWQgdGhlIGZpbGUgY29udGVudHMubXNvZnR3YXJlQWdlbnShZG5hbWVmQ2xhdWRlcmFsbEFjdGlvbnNJbmNsdWRlZPUAAADIanVtYgAAAEBqdW1kY2JvcgARABCAAACqADibcRNjMnBhLmhhc2guZGF0YQAAAAAYYzJzaPws1HIfGf4UMEG7FCOueeEAAACAY2JvcqVjYWxnZnNoYTI1NmNwYWRNAAAAAAAAAAAAAAAAAGRoYXNoWCBdZ0w6K/APR6yafqtGQiMBGOp1Y4XIsKArj3p8Leo+CGRuYW1lbmp1bWJmIG1hbmlmZXN0amV4Y2x1c2lvbnOBomVzdGFydBizZmxlbmd0aBkeBAAAAj5qdW1iAAAAJ2p1bWRjMmNsABEAEIAAAKoAOJtxA2MycGEuY2xhaW0udjIAAAACD2Nib3KlY2FsZ2ZzaGEyNTZpc2lnbmF0dXJleE1zZWxmI2p1bWJmPS9jMnBhL3VybjpjMnBhOmVkYzBlMGEwLTc2YmQtNGU4OS05M2EzLWRmMTAwNGQ1MTAxOC9jMnBhLnNpZ25hdHVyZWppbnN0YW5jZUlEeCx4bXA6aWlkOmZkNWU3OWQ5LTIzOTgtNDAzZC1iNGU3LTAwMjQ1OTQ4MmQ1ZHJjcmVhdGVkX2Fzc2VydGlvbnODomN1cmx4LXNlbGYjanVtYmY9YzJwYS5hc3NlcnRpb25zL2MycGEuaW5ncmVkaWVudC52M2RoYXNoWCAEf8ynf2kPEW+nvIoaBQPdFGZpdVB6zm4Kdi6l3Ao9dqJjdXJseCpzZWxmI2p1bWJmPWMycGEuYXNzZXJ0aW9ucy9jMnBhLmFjdGlvbnMudjJkaGFzaFggao6s1veTbJznjW4s5G1RzZnA2LiMIHvdwG0ryLlYKKSiY3VybHgpc2VsZiNqdW1iZj1jMnBhLmFzc2VydGlvbnMvYzJwYS5oYXNoLmRhdGFkaGFzaFggr//WOp6OKA1mFzjNmA9YbgSRGMwuiSXi9d7aTjdjmpx0Y2xhaW1fZ2VuZXJhdG9yX2luZm+jZG5hbWVvQW50aHJvcGljIEZpbGVzZ3ZlcnNpb25lMS4wLjBrc3BlY1ZlcnNpb25lMi40LjAAABA4anVtYgAAAChqdW1kYzJjcwARABCAAACqADibcQNjMnBhLnNpZ25hdHVyZQAAABAIY2JvctKEWQISogEmGCFZAgowggIGMIIBjaADAgECAhRA5aAK7sI50L64g/oGQgU9Z1UTADAKBggqhkjOPQQDAzBJMRcwFQYDVQQKEw5BbnRocm9waWMsIFBCQzEuMCwGA1UEAxMlQW50aHJvcGljIENvbnRlbnQgQ3JlZGVudGlhbHMgUm9vdCBDQTAeFw0yNjA4MDcxODQzNTZaFw0yODA4MDYxOTQzNTZaMEQxFzAVBgNVBAoTDkFudGhyb3BpYywgUEJDMSkwJwYDVQQDEyBBbnRocm9waWMgQ2xhdWRlIENvbnRlbnQgU2lnbmluZzBZMBMGByqGSM49AgEGCCqGSM49AwEHA0IABJh6CmvLUBgFFNU0vUKlOVtE6djd17L5SuwX0LemFisBM3dkd/3cyjxFA3Qo5S46fX0/ihY0VZ7mfb9KF703t5OjWDBWMA4GA1UdDwEB/wQEAwIHgDAVBgNVHSUEDjAMBgorBgEEAYPoXgIBMAwGA1UdEwEB/wQCMAAwHwYDVR0jBBgwFoAUzlHiBIFOZFsj+OPEz5o+nMHXXMIwCgYIKoZIzj0EAwMDZwAwZAIwMXMdFJ4BetLLVY7ORuE9noqbbAZOZn/aArXyTwFAZfKrPzxF2vPoJNf1+UCdg1XGAjBwX1zd9WGqYkqmL5SFqw1QySjr1zJfpJM9+1rdDwSPLMOPOjKuiXjoU/pUUeG9RwmhY3BhZFkNngAAAAAAAAAAAAAAAAAAAAAAAAAAAAAAAAAAAAAAAAAAAAAAAAAAAAAAAAAAAAAAAAAAAAAAAAAAAAAAAAAAAAAAAAAAAAAAAAAAAAAAAAAAAAAAAAAAAAAAAAAAAAAAAAAAAAAAAAAAAAAAAAAAAAAAAAAAAAAAAAAAAAAAAAAAAAAAAAAAAAAAAAAAAAAAAAAAAAAAAAAAAAAAAAAAAAAAAAAAAAAAAAAAAAAAAAAAAAAAAAAAAAAAAAAAAAAAAAAAAAAAAAAAAAAAAAAAAAAAAAAAAAAAAAAAAAAAAAAAAAAAAAAAAAAAAAAAAAAAAAAAAAAAAAAAAAAAAAAAAAAAAAAAAAAAAAAAAAAAAAAAAAAAAAAAAAAAAAAAAAAAAAAAAAAAAAAAAAAAAAAAAAAAAAAAAAAAAAAAAAAAAAAAAAAAAAAAAAAAAAAAAAAAAAAAAAAAAAAAAAAAAAAAAAAAAAAAAAAAAAAAAAAAAAAAAAAAAAAAAAAAAAAAAAAAAAAAAAAAAAAAAAAAAAAAAAAAAAAAAAAAAAAAAAAAAAAAAAAAAAAAAAAAAAAAAAAAAAAAAAAAAAAAAAAAAAAAAAAAAAAAAAAAAAAAAAAAAAAAAAAAAAAAAAAAAAAAAAAAAAAAAAAAAAAAAAAAAAAAAAAAAAAAAAAAAAAAAAAAAAAAAAAAAAAAAAAAAAAAAAAAAAAAAAAAAAAAAAAAAAAAAAAAAAAAAAAAAAAAAAAAAAAAAAAAAAAAAAAAAAAAAAAAAAAAAAAAAAAAAAAAAAAAAAAAAAAAAAAAAAAAAAAAAAAAAAAAAAAAAAAAAAAAAAAAAAAAAAAAAAAAAAAAAAAAAAAAAAAAAAAAAAAAAAAAAAAAAAAAAAAAAAAAAAAAAAAAAAAAAAAAAAAAAAAAAAAAAAAAAAAAAAAAAAAAAAAAAAAAAAAAAAAAAAAAAAAAAAAAAAAAAAAAAAAAAAAAAAAAAAAAAAAAAAAAAAAAAAAAAAAAAAAAAAAAAAAAAAAAAAAAAAAAAAAAAAAAAAAAAAAAAAAAAAAAAAAAAAAAAAAAAAAAAAAAAAAAAAAAAAAAAAAAAAAAAAAAAAAAAAAAAAAAAAAAAAAAAAAAAAAAAAAAAAAAAAAAAAAAAAAAAAAAAAAAAAAAAAAAAAAAAAAAAAAAAAAAAAAAAAAAAAAAAAAAAAAAAAAAAAAAAAAAAAAAAAAAAAAAAAAAAAAAAAAAAAAAAAAAAAAAAAAAAAAAAAAAAAAAAAAAAAAAAAAAAAAAAAAAAAAAAAAAAAAAAAAAAAAAAAAAAAAAAAAAAAAAAAAAAAAAAAAAAAAAAAAAAAAAAAAAAAAAAAAAAAAAAAAAAAAAAAAAAAAAAAAAAAAAAAAAAAAAAAAAAAAAAAAAAAAAAAAAAAAAAAAAAAAAAAAAAAAAAAAAAAAAAAAAAAAAAAAAAAAAAAAAAAAAAAAAAAAAAAAAAAAAAAAAAAAAAAAAAAAAAAAAAAAAAAAAAAAAAAAAAAAAAAAAAAAAAAAAAAAAAAAAAAAAAAAAAAAAAAAAAAAAAAAAAAAAAAAAAAAAAAAAAAAAAAAAAAAAAAAAAAAAAAAAAAAAAAAAAAAAAAAAAAAAAAAAAAAAAAAAAAAAAAAAAAAAAAAAAAAAAAAAAAAAAAAAAAAAAAAAAAAAAAAAAAAAAAAAAAAAAAAAAAAAAAAAAAAAAAAAAAAAAAAAAAAAAAAAAAAAAAAAAAAAAAAAAAAAAAAAAAAAAAAAAAAAAAAAAAAAAAAAAAAAAAAAAAAAAAAAAAAAAAAAAAAAAAAAAAAAAAAAAAAAAAAAAAAAAAAAAAAAAAAAAAAAAAAAAAAAAAAAAAAAAAAAAAAAAAAAAAAAAAAAAAAAAAAAAAAAAAAAAAAAAAAAAAAAAAAAAAAAAAAAAAAAAAAAAAAAAAAAAAAAAAAAAAAAAAAAAAAAAAAAAAAAAAAAAAAAAAAAAAAAAAAAAAAAAAAAAAAAAAAAAAAAAAAAAAAAAAAAAAAAAAAAAAAAAAAAAAAAAAAAAAAAAAAAAAAAAAAAAAAAAAAAAAAAAAAAAAAAAAAAAAAAAAAAAAAAAAAAAAAAAAAAAAAAAAAAAAAAAAAAAAAAAAAAAAAAAAAAAAAAAAAAAAAAAAAAAAAAAAAAAAAAAAAAAAAAAAAAAAAAAAAAAAAAAAAAAAAAAAAAAAAAAAAAAAAAAAAAAAAAAAAAAAAAAAAAAAAAAAAAAAAAAAAAAAAAAAAAAAAAAAAAAAAAAAAAAAAAAAAAAAAAAAAAAAAAAAAAAAAAAAAAAAAAAAAAAAAAAAAAAAAAAAAAAAAAAAAAAAAAAAAAAAAAAAAAAAAAAAAAAAAAAAAAAAAAAAAAAAAAAAAAAAAAAAAAAAAAAAAAAAAAAAAAAAAAAAAAAAAAAAAAAAAAAAAAAAAAAAAAAAAAAAAAAAAAAAAAAAAAAAAAAAAAAAAAAAAAAAAAAAAAAAAAAAAAAAAAAAAAAAAAAAAAAAAAAAAAAAAAAAAAAAAAAAAAAAAAAAAAAAAAAAAAAAAAAAAAAAAAAAAAAAAAAAAAAAAAAAAAAAAAAAAAAAAAAAAAAAAAAAAAAAAAAAAAAAAAAAAAAAAAAAAAAAAAAAAAAAAAAAAAAAAAAAAAAAAAAAAAAAAAAAAAAAAAAAAAAAAAAAAAAAAAAAAAAAAAAAAAAAAAAAAAAAAAAAAAAAAAAAAAAAAAAAAAAAAAAAAAAAAAAAAAAAAAAAAAAAAAAAAAAAAAAAAAAAAAAAAAAAAAAAAAAAAAAAAAAAAAAAAAAAAAAAAAAAAAAAAAAAAAAAAAAAAAAAAAAAAAAAAAAAAAAAAAAAAAAAAAAAAAAAAAAAAAAAAAAAAAAAAAAAAAAAAAAAAAAAAAAAAAAAAAAAAAAAAAAAAAAAAAAAAAAAAAAAAAAAAAAAAAAAAAAAAAAAAAAAAAAAAAAAAAAAAAAAAAAAAAAAAAAAAAAAAAAAAAAAAAAAAAAAAAAAAAAAAAAAAAAAAAAAAAAAAAAAAAAAAAAAAAAAAAAAAAAAAAAAAAAAAAAAAAAAAAAAAAAAAAAAAAAAAAAAAAAAAAAAAAAAAAAAAAAAAAAAAAAAAAAAAAAAAAAAAAAAAAAAAAAAAAAAAAAAAAAAAAAAAAAAAAAAAAAAAAAAAAAAAAAAAAAAAAAAAAAAAAAAAAAAAAAAAAAAAAAAAAAAAAAAAAAAAAAAAAAAAAAAAAAAAAAAAAAAAAAAAAAAAAAAAAAAAAAAAAAAAAAAAAAAAAAAAAAAAAAAAAAAAAAAAAAAAAAAAAAAAAAAAAAAAAAAAAAAAAAAAAAAAAAAAAAAAAAAAAAAAAAAAAAAAAAAAAAAAAAAAAAAAAAAAAAAAAAAAAAAAAAAAAAAAAAAAAAAAAAAAAAAAAAAAAAAAAAAAAAAAAAAAAAAAAAAAAAAAAAAAAAAAAAAAAAAAAAAAAAAAAAAAAAAAAAAAAAAAAAAAAAAAAAAAAAAAAAAAAAAAAAAAAAAAAAAAAAAAAAAAAAAAAAAAAAAAAAAAAAAAAAAAAAAAAAAAAAAAAAAAAAAAAAAAAAAAAAAAAAAAAAAAAAAAAAAAAAAAAAAAAAAAAAAAAAAAAAAAAAAAAAAAAAAAAAAAAAAAAAAAAAAAAAAAAAAAAAAAAAAAAAAAAAAAAAAAAAAAAAAAAAAAAAAAAAAAAAAAAAAAAAAAAAAAAAAAAAAAAAAAAAAAAAAAAAAAAAAAAAAAAAAAAAAAAAAAAAAAAAAAAAAAAAAAAAAAAAAAAAAAAAAAAAAAAAAAAAAAAAAAAAAAAAAAAAAAAAAAAAAAAAAAAAAAAAAAAAAAAAAAAAAAAAAAAAAAAAAAAAAAAAAAAAAAAAAAAAAAAAAAAAAAAAAAAAAAAAAAAAAAAAAAAAAAAAAAAAAAAAAAAAAAAAAAAAAAAAAAAAAAAAAAAAAAAAAAAAAAAAAAAAAAAAAAAAAAAAAAAAAAAAAAAAAAAAAAAAAAAAAAAAAAAAAAAAAAAAAAAAAAAAAAAAAAAAAAAAAAAAAAAAAAAAAAAAAAAAAAAAAAAAAAAAAAAAAAAAAAAAAAAAAAAAAAAAAAAAAAAAAAAAAAAAAAAAAAAAAAAAAAAAAAAAAAAAAAAAAAAAAAAAAAAAAAAAAAAAAAAAAAAAAAAAAAAAAAAAAAAAAAAAAAAAAAAAAAAAAAAAAAAAAAAAAAAAAAAAAAAAAAAAAAAAAAAAAAAAAAAAAAAAAAAAAAAAAAAAAAAAAAAAAAAAAAAAAAAAAAAAAAAAAAAAAAAAAAAAAAAAAAAAAAAAAAAAAAAAAAAAAAAAAAAAAAAAAAAAAAAAAAAAAAAAAAAAAAAAAAAAAAAAAAAAAAAAAAAAAAAAAAAAAAAAAAAAAAAAAAAAAAAAAAAAAAAAAAAAAAAAAAAAAAAAAAAAAAAAAAAAAAAAAAAAAAAAAAAAAAAAAAAAAAAAAAAAAAAAAAAAAAAAAAAAAAAAAAAAAAAAAAAAAAAAAAAAAAAAAAAAAAAAAAAAAAAAAAAAAAAAAAAAAAAAAAAAAAAAAAAAAAAAAAAAAAAAAAAAAAAAAAAAAAAAAAAAAAAAAAAAAAAAAAAAAAAAAAAAAAAAAAAAAAAAAAAAAAAAPZYQGF4YJJieu+926LRTIa+NGpLNy77+w0/VsnGOz3mewB5J+l7RBokzCyH1vO1xvabovJsBfWX4D/L/YZZL8jvrhU=</c2pa:manifest></metadata><title>vardex</title><rect fill="#e4e8e9" x="2" y="25" width="28" height="6" rx="3"/><rect fill="#e4e8e9" x="3" y="17" width="21" height="6" rx="3"/><rect fill="#e4e8e9" x="10" y="9" width="15" height="6" rx="3"/><rect fill="#f5694a" x="10" y="1" width="9" height="6" rx="3"/><path fill="#e4e8e9" d="M49.23486328125 31.0 42.6767578125 13.59765625H47.1240234375L51.8935546875 28.30908203125H51.42626953125L56.1796875 13.59765625H60.626953125L54.0849609375 31.0Z M67.43513671875 31.40283203125Q65.7432421875 31.40283203125 64.3897265625 30.79052734375Q63.0362109375 30.17822265625 62.24666015625 29.010009765625Q61.457109375 27.841796875 61.457109375 26.21435546875Q61.457109375 24.4580078125 62.480302734375 23.144775390625Q63.50349609375 21.83154296875 65.509599609375 21.1064453125Q67.515703125 20.38134765625 70.480546875 20.38134765625H73.0908984375L72.800859375 20.76806640625V19.78515625Q72.800859375 17.916015625 72.091875 16.96533203125Q71.382890625 16.0146484375 69.7393359375 16.0146484375Q68.17634765625 16.0146484375 67.33845703125 16.83642578125Q66.50056640625 17.658203125 66.37166015625 19.1083984375L62.1983203125 18.31884765625Q62.40779296875 16.884765625 63.366533203125 15.724609375Q64.3252734375 14.564453125 65.98494140625 13.87158203125Q67.644609375 13.1787109375 69.98103515625 13.1787109375Q72.20466796875 13.1787109375 73.703203125 13.93603515625Q75.20173828125 14.693359375 75.951005859375 16.280517578125Q76.7002734375 17.86767578125 76.7002734375 20.38134765625V27.068359375Q76.7002734375 27.6162109375 76.853349609375 27.79345703125Q77.00642578125 27.970703125 77.5059375 27.970703125H78.3760546875V31.0H76.29744140625Q74.71833984375 31.0 73.832109375 30.154052734375Q72.94587890625 29.30810546875 72.94587890625 27.82568359375V26.8427734375L73.62263671875 27.0361328125Q73.39705078125 27.72900390625 72.9619921875 28.486328125Q72.52693359375 29.24365234375 71.8018359375 29.904296875Q71.07673828125 30.56494140625 70.005205078125 30.98388671875Q68.933671875 31.40283203125 67.43513671875 31.40283203125ZM68.53083984375 28.5185546875Q69.7393359375 28.5185546875 70.714189453125 27.946533203125Q71.68904296875 27.37451171875 72.261064453125 26.190185546875Q72.8330859375 25.005859375 72.8330859375 23.201171875V22.9111328125H70.545Q68.65974609375 22.9111328125 67.59626953125 23.402587890625Q66.53279296875 23.89404296875 66.097734375 24.611083984375Q65.66267578125 25.328125 65.66267578125 26.037109375Q65.66267578125 26.6494140625 65.944658203125 27.221435546875Q66.226640625 27.79345703125 66.85505859375 28.156005859375Q67.4834765625 28.5185546875 68.53083984375 28.5185546875Z M81.4620703125 31.0V13.59765625H85.28091796875V17.4326171875L85.1358984375 16.94921875Q85.9415625 15.06396484375 87.4562109375 14.12939453125Q88.970859375 13.19482421875 90.6788671875 13.19482421875Q91.162265625 13.19482421875 91.653720703125 13.275390625Q92.14517578125 13.35595703125 92.59634765625 13.54931640625L92.24185546875 17.0458984375Q91.2589453125 16.755859375 90.324375 16.755859375Q89.63150390625 16.755859375 88.785556640625 17.005615234375Q87.939609375 17.25537109375 87.18228515625 17.93212890625Q86.4249609375 18.60888671875 85.933505859375 19.873779296875Q85.44205078125 21.138671875 85.44205078125 23.15283203125V31.0Z M100.75804687499999 31.40283203125Q98.61498046874999 31.40283203125 96.99559570312499 30.30712890625Q95.37621093749999 29.21142578125 94.49803710937499 27.156982421875Q93.61986328124999 25.1025390625 93.61986328124999 22.2666015625Q93.61986328124999 19.4306640625 94.50609374999999 17.400390625Q95.39232421874999 15.3701171875 97.01170898437499 14.282470703125Q98.63109374999999 13.19482421875 100.80638671874999 13.19482421875Q102.64330078124999 13.19482421875 104.22240234374999 14.06494140625Q105.80150390624999 14.93505859375 106.70384765624999 16.96533203125L106.28490234374999 17.02978515625V6.830078125H110.28099609374999V31.0H106.49437499999999V27.455078125L106.55882812499999 27.69677734375Q105.75316406249999 29.59814453125 104.19823242187499 30.50048828125Q102.64330078124999 31.40283203125 100.75804687499999 31.40283203125ZM102.11156249999999 28.30908203125Q103.33617187499999 28.30908203125 104.31908203124999 27.66455078125Q105.30199218749999 27.02001953125 105.88207031249999 25.690673828125Q106.46214843749999 24.361328125 106.46214843749999 22.3310546875Q106.46214843749999 19.28564453125 105.20531249999999 17.787109375Q103.94847656249999 16.28857421875 102.14378906249999 16.28857421875Q100.24242187499999 16.28857421875 99.05809570312499 17.875732421875Q97.87376953124999 19.462890625 97.87376953124999 22.36328125Q97.87376953124999 25.1669921875 99.01781249999999 26.738037109375Q100.16185546874999 28.30908203125 102.11156249999999 28.30908203125Z M122.26154296874999 31.40283203125Q119.73175781249999 31.40283203125 117.78205078124999 30.291015625Q115.83234374999999 29.17919921875 114.72052734374999 27.1328125Q113.60871093749999 25.08642578125 113.60871093749999 22.298828125Q113.60871093749999 19.51123046875 114.70441406249999 17.46484375Q115.80011718749999 15.41845703125 117.73371093749999 14.306640625Q119.66730468749999 13.19482421875 122.19708984374999 13.19482421875Q123.61505859374999 13.19482421875 125.05719726562499 13.6298828125Q126.49933593749999 14.06494140625 127.699775390625 15.168701171875Q128.90021484375 16.2724609375 129.64142578125 18.214111328125Q130.38263671875 20.15576171875 130.38263671875 23.13671875H116.17072265624999V20.60693359375H126.83771484374999L126.22541015624999 21.525390625Q126.12873046874999 19.57568359375 125.55670898437499 18.391357421875Q124.98468749999999 17.20703125 124.09040039062499 16.667236328125Q123.19611328124999 16.12744140625 122.10041015624999 16.12744140625Q120.71466796874999 16.12744140625 119.76398437499999 16.876708984375Q118.81330078124999 17.6259765625 118.32184570312499 19.019775390625Q117.83039062499999 20.41357421875 117.83039062499999 22.31494140625Q117.83039062499999 25.15087890625 118.94220703124999 26.754150390625Q120.05402343749999 28.357421875 122.22931640624999 28.357421875Q123.71173828124999 28.357421875 124.75910156249999 27.60009765625Q125.80646484374999 26.8427734375 126.32208984374999 25.34423828125L130.02814453125 26.37548828125Q129.3997265625 28.0673828125 128.2395703125 29.17919921875Q127.07941406249999 30.291015625 125.53253906249999 30.846923828125Q123.98566406249999 31.40283203125 122.26154296874999 31.40283203125Z M130.87441406250002 31.0 137.54531250000002 21.9765625 131.40615234375002 13.59765625H135.91787109375002L140.12343750000002 19.70458984375L144.15175781250002 13.59765625H148.77626953125002L142.41152343750002 22.18603515625L149.03408203125002 31.0H144.29677734375002L139.88173828125002 24.5869140625L135.45058593750002 31.0Z"/></svg>